<svg xmlns="http://www.w3.org/2000/svg" viewBox="0 0 400 400" width="400" height="400">
<defs>
  <linearGradient id="bg" x1="0" y1="0" x2="1" y2="1">
    <stop offset="0" stop-color="#f7fafc"/><stop offset="1" stop-color="#eef3f8"/>
  </linearGradient>
  <radialGradient id="glow" cx="0.5" cy="0.5" r="0.5">
    <stop offset="0" stop-color="#f2c14e" stop-opacity="0.9"/>
    <stop offset="1" stop-color="#f2c14e" stop-opacity="0"/>
  </radialGradient>
  <linearGradient id="blue" x1="0" y1="0" x2="0" y2="1">
    <stop offset="0" stop-color="#3b82c4"/><stop offset="1" stop-color="#2a5f96"/>
  </linearGradient>
  <radialGradient id="pot" cx="0.5" cy="0.5" r="0.55">
    <stop offset="0" stop-color="#3b82c4" stop-opacity="0.55"/>
    <stop offset="0.6" stop-color="#28b0a0" stop-opacity="0.18"/>
    <stop offset="1" stop-color="#28b0a0" stop-opacity="0"/>
  </radialGradient>
  <filter id="sh" x="-20%" y="-20%" width="140%" height="140%">
    <feDropShadow dx="0" dy="3" stdDeviation="4" flood-color="#16233b" flood-opacity="0.18"/>
  </filter>
  <clipPath id="rc"><rect x="0" y="0" width="400" height="400" rx="30"/></clipPath>
</defs>
<g clip-path="url(#rc)">
  <rect x="0" y="0" width="400" height="400" fill="url(#bg)"/>
  <defs><marker id="a5" viewBox="0 0 10 10" refX="6" refY="5" markerWidth="6" markerHeight="6" orient="auto"><path d="M0,0 L10,5 L0,10 z" fill="#16233b"/></marker></defs>
<line x1="55" y1="200" x2="55" y2="200" stroke="#28b0a0" stroke-width="2.4" stroke-linecap="round"/>
<line x1="56" y1="197" x2="56" y2="203" stroke="#28b0a0" stroke-width="2.4" stroke-linecap="round"/>
<line x1="58" y1="194" x2="58" y2="206" stroke="#28b0a0" stroke-width="2.4" stroke-linecap="round"/>
<line x1="59" y1="190" x2="59" y2="210" stroke="#28b0a0" stroke-width="2.4" stroke-linecap="round"/>
<line x1="61" y1="187" x2="61" y2="213" stroke="#28b0a0" stroke-width="2.4" stroke-linecap="round"/>
<line x1="62" y1="184" x2="62" y2="216" stroke="#28b0a0" stroke-width="2.4" stroke-linecap="round"/>
<line x1="63" y1="181" x2="63" y2="219" stroke="#28b0a0" stroke-width="2.4" stroke-linecap="round"/>
<line x1="65" y1="179" x2="65" y2="221" stroke="#28b0a0" stroke-width="2.4" stroke-linecap="round"/>
<line x1="66" y1="177" x2="66" y2="223" stroke="#28b0a0" stroke-width="2.4" stroke-linecap="round"/>
<line x1="68" y1="176" x2="68" y2="224" stroke="#28b0a0" stroke-width="2.4" stroke-linecap="round"/>
<line x1="69" y1="177" x2="69" y2="223" stroke="#28b0a0" stroke-width="2.4" stroke-linecap="round"/>
<line x1="70" y1="178" x2="70" y2="222" stroke="#28b0a0" stroke-width="2.4" stroke-linecap="round"/>
<line x1="72" y1="181" x2="72" y2="219" stroke="#28b0a0" stroke-width="2.4" stroke-linecap="round"/>
<line x1="73" y1="184" x2="73" y2="216" stroke="#28b0a0" stroke-width="2.4" stroke-linecap="round"/>
<line x1="74" y1="189" x2="74" y2="211" stroke="#28b0a0" stroke-width="2.4" stroke-linecap="round"/>
<line x1="76" y1="195" x2="76" y2="205" stroke="#28b0a0" stroke-width="2.4" stroke-linecap="round"/>
<line x1="77" y1="199" x2="77" y2="201" stroke="#28b0a0" stroke-width="2.4" stroke-linecap="round"/>
<line x1="79" y1="192" x2="79" y2="208" stroke="#28b0a0" stroke-width="2.4" stroke-linecap="round"/>
<line x1="80" y1="184" x2="80" y2="216" stroke="#28b0a0" stroke-width="2.4" stroke-linecap="round"/>
<line x1="81" y1="177" x2="81" y2="223" stroke="#28b0a0" stroke-width="2.4" stroke-linecap="round"/>
<line x1="83" y1="171" x2="83" y2="229" stroke="#28b0a0" stroke-width="2.4" stroke-linecap="round"/>
<line x1="84" y1="165" x2="84" y2="235" stroke="#28b0a0" stroke-width="2.4" stroke-linecap="round"/>
<line x1="86" y1="160" x2="86" y2="240" stroke="#28b0a0" stroke-width="2.4" stroke-linecap="round"/>
<line x1="87" y1="157" x2="87" y2="243" stroke="#28b0a0" stroke-width="2.4" stroke-linecap="round"/>
<line x1="88" y1="156" x2="88" y2="244" stroke="#28b0a0" stroke-width="2.4" stroke-linecap="round"/>
<line x1="90" y1="156" x2="90" y2="244" stroke="#28b0a0" stroke-width="2.4" stroke-linecap="round"/>
<line x1="91" y1="158" x2="91" y2="242" stroke="#28b0a0" stroke-width="2.4" stroke-linecap="round"/>
<line x1="93" y1="162" x2="93" y2="238" stroke="#28b0a0" stroke-width="2.4" stroke-linecap="round"/>
<line x1="94" y1="168" x2="94" y2="232" stroke="#28b0a0" stroke-width="2.4" stroke-linecap="round"/>
<line x1="95" y1="175" x2="95" y2="225" stroke="#28b0a0" stroke-width="2.4" stroke-linecap="round"/>
<line x1="97" y1="184" x2="97" y2="216" stroke="#28b0a0" stroke-width="2.4" stroke-linecap="round"/>
<line x1="98" y1="194" x2="98" y2="206" stroke="#28b0a0" stroke-width="2.4" stroke-linecap="round"/>
<line x1="100" y1="196" x2="100" y2="204" stroke="#28b0a0" stroke-width="2.4" stroke-linecap="round"/>
<line x1="101" y1="185" x2="101" y2="215" stroke="#28b0a0" stroke-width="2.4" stroke-linecap="round"/>
<line x1="102" y1="175" x2="102" y2="225" stroke="#28b0a0" stroke-width="2.4" stroke-linecap="round"/>
<line x1="104" y1="166" x2="104" y2="234" stroke="#28b0a0" stroke-width="2.4" stroke-linecap="round"/>
<line x1="105" y1="158" x2="105" y2="242" stroke="#28b0a0" stroke-width="2.4" stroke-linecap="round"/>
<line x1="107" y1="152" x2="107" y2="248" stroke="#28b0a0" stroke-width="2.4" stroke-linecap="round"/>
<line x1="108" y1="147" x2="108" y2="253" stroke="#28b0a0" stroke-width="2.4" stroke-linecap="round"/>
<line x1="109" y1="145" x2="109" y2="255" stroke="#28b0a0" stroke-width="2.4" stroke-linecap="round"/>
<line x1="111" y1="145" x2="111" y2="255" stroke="#28b0a0" stroke-width="2.4" stroke-linecap="round"/>
<line x1="112" y1="148" x2="112" y2="252" stroke="#28b0a0" stroke-width="2.4" stroke-linecap="round"/>
<line x1="113" y1="152" x2="113" y2="248" stroke="#28b0a0" stroke-width="2.4" stroke-linecap="round"/>
<line x1="115" y1="158" x2="115" y2="242" stroke="#28b0a0" stroke-width="2.4" stroke-linecap="round"/>
<line x1="116" y1="166" x2="116" y2="234" stroke="#28b0a0" stroke-width="2.4" stroke-linecap="round"/>
<line x1="118" y1="176" x2="118" y2="224" stroke="#28b0a0" stroke-width="2.4" stroke-linecap="round"/>
<line x1="119" y1="186" x2="119" y2="214" stroke="#28b0a0" stroke-width="2.4" stroke-linecap="round"/>
<line x1="120" y1="196" x2="120" y2="204" stroke="#28b0a0" stroke-width="2.4" stroke-linecap="round"/>
<line x1="122" y1="194" x2="122" y2="206" stroke="#28b0a0" stroke-width="2.4" stroke-linecap="round"/>
<line x1="123" y1="184" x2="123" y2="216" stroke="#28b0a0" stroke-width="2.4" stroke-linecap="round"/>
<line x1="125" y1="175" x2="125" y2="225" stroke="#28b0a0" stroke-width="2.4" stroke-linecap="round"/>
<line x1="126" y1="168" x2="126" y2="232" stroke="#28b0a0" stroke-width="2.4" stroke-linecap="round"/>
<line x1="127" y1="162" x2="127" y2="238" stroke="#28b0a0" stroke-width="2.4" stroke-linecap="round"/>
<line x1="129" y1="158" x2="129" y2="242" stroke="#28b0a0" stroke-width="2.4" stroke-linecap="round"/>
<line x1="130" y1="156" x2="130" y2="244" stroke="#28b0a0" stroke-width="2.4" stroke-linecap="round"/>
<line x1="132" y1="156" x2="132" y2="244" stroke="#28b0a0" stroke-width="2.4" stroke-linecap="round"/>
<line x1="133" y1="157" x2="133" y2="243" stroke="#28b0a0" stroke-width="2.4" stroke-linecap="round"/>
<line x1="134" y1="160" x2="134" y2="240" stroke="#28b0a0" stroke-width="2.4" stroke-linecap="round"/>
<line x1="136" y1="165" x2="136" y2="235" stroke="#28b0a0" stroke-width="2.4" stroke-linecap="round"/>
<line x1="137" y1="171" x2="137" y2="229" stroke="#28b0a0" stroke-width="2.4" stroke-linecap="round"/>
<line x1="139" y1="178" x2="139" y2="222" stroke="#28b0a0" stroke-width="2.4" stroke-linecap="round"/>
<line x1="140" y1="185" x2="140" y2="215" stroke="#28b0a0" stroke-width="2.4" stroke-linecap="round"/>
<line x1="141" y1="192" x2="141" y2="208" stroke="#28b0a0" stroke-width="2.4" stroke-linecap="round"/>
<line x1="143" y1="199" x2="143" y2="201" stroke="#28b0a0" stroke-width="2.4" stroke-linecap="round"/>
<line x1="144" y1="195" x2="144" y2="205" stroke="#28b0a0" stroke-width="2.4" stroke-linecap="round"/>
<line x1="146" y1="189" x2="146" y2="211" stroke="#28b0a0" stroke-width="2.4" stroke-linecap="round"/>
<line x1="147" y1="184" x2="147" y2="216" stroke="#28b0a0" stroke-width="2.4" stroke-linecap="round"/>
<line x1="148" y1="181" x2="148" y2="219" stroke="#28b0a0" stroke-width="2.4" stroke-linecap="round"/>
<line x1="150" y1="178" x2="150" y2="222" stroke="#28b0a0" stroke-width="2.4" stroke-linecap="round"/>
<line x1="151" y1="177" x2="151" y2="223" stroke="#28b0a0" stroke-width="2.4" stroke-linecap="round"/>
<line x1="152" y1="176" x2="152" y2="224" stroke="#28b0a0" stroke-width="2.4" stroke-linecap="round"/>
<line x1="154" y1="177" x2="154" y2="223" stroke="#28b0a0" stroke-width="2.4" stroke-linecap="round"/>
<line x1="155" y1="179" x2="155" y2="221" stroke="#28b0a0" stroke-width="2.4" stroke-linecap="round"/>
<line x1="157" y1="181" x2="157" y2="219" stroke="#28b0a0" stroke-width="2.4" stroke-linecap="round"/>
<line x1="158" y1="184" x2="158" y2="216" stroke="#28b0a0" stroke-width="2.4" stroke-linecap="round"/>
<line x1="159" y1="187" x2="159" y2="213" stroke="#28b0a0" stroke-width="2.4" stroke-linecap="round"/>
<line x1="161" y1="191" x2="161" y2="209" stroke="#28b0a0" stroke-width="2.4" stroke-linecap="round"/>
<line x1="162" y1="194" x2="162" y2="206" stroke="#28b0a0" stroke-width="2.4" stroke-linecap="round"/>
<line x1="164" y1="197" x2="164" y2="203" stroke="#28b0a0" stroke-width="2.4" stroke-linecap="round"/>
<line x1="165" y1="200" x2="165" y2="200" stroke="#28b0a0" stroke-width="2.4" stroke-linecap="round"/>
<line x1="180" y1="200" x2="222" y2="200" stroke="#16233b" stroke-width="3.4" marker-end="url(#a5)"/>
<rect x="238" y="120" width="118" height="160" rx="12" fill="#ffffff" stroke="#16233b" stroke-width="2.4" filter="url(#sh)"/>
<line x1="256" y1="150" x2="334" y2="150" stroke="#c4d0de" stroke-width="5" stroke-linecap="round"/>
<line x1="256" y1="170" x2="314" y2="170" stroke="#ef7a5a" stroke-width="5" stroke-linecap="round"/>
<line x1="256" y1="190" x2="334" y2="190" stroke="#c4d0de" stroke-width="5" stroke-linecap="round"/>
<line x1="256" y1="210" x2="314" y2="210" stroke="#c4d0de" stroke-width="5" stroke-linecap="round"/>
<line x1="256" y1="230" x2="334" y2="230" stroke="#c4d0de" stroke-width="5" stroke-linecap="round"/>
<line x1="256" y1="250" x2="314" y2="250" stroke="#c4d0de" stroke-width="5" stroke-linecap="round"/>
</g>
<rect x="1" y="1" width="398" height="398" rx="29" fill="none" stroke="#16233b" stroke-opacity="0.10" stroke-width="2"/>
</svg>