<svg xmlns="http://www.w3.org/2000/svg" viewBox="0 0 400 400" width="400" height="400">
<defs>
  <linearGradient id="bg" x1="0" y1="0" x2="1" y2="1">
    <stop offset="0" stop-color="#f7fafc"/><stop offset="1" stop-color="#eef3f8"/>
  </linearGradient>
  <marker id="af" viewBox="0 0 10 10" refX="7" refY="5" markerWidth="7" markerHeight="7" orient="auto">
    <path d="M0,0 L10,5 L0,10 z" fill="#16233b"/></marker>
  <clipPath id="rc"><rect x="0" y="0" width="400" height="400" rx="30"/></clipPath>
</defs>
<g clip-path="url(#rc)">
  <rect x="0" y="0" width="400" height="400" fill="url(#bg)"/>
  <rect x="28" y="60" width="66" height="112" rx="9" fill="#ffffff" fill-opacity="0.55" stroke="#16233b" stroke-opacity="0.12" stroke-width="1.4"/>
<path d="M 37.2,172.9 L 38.1,122.4 L 39.0,116.0 L 39.9,150.6 L 40.8,147.2 L 41.6,176.0 L 42.5,189.4 L 43.4,188.5 L 44.3,189.6 L 45.2,128.6 L 46.0,159.6 L 46.9,152.9 L 47.8,176.8 L 48.7,189.6 L 49.6,189.6 L 50.4,179.5 L 51.3,131.5 L 52.2,148.3 L 53.1,161.4 L 54.0,152.0 L 54.8,187.5 L 55.7,99.0 L 56.6,174.5 L 57.5,130.5 L 58.4,59.3 L 59.2,189.6 L 60.1,165.4 L 61.0,139.3 L 61.9,108.1 L 62.8,163.1 L 63.6,111.5 L 64.5,101.1 L 65.4,91.2 L 66.3,170.3 L 67.2,69.6 L 68.0,42.4 L 68.9,71.2 L 69.8,106.4 L 70.7,101.0 L 71.6,164.8 L 72.4,62.8 L 73.3,42.4 L 74.2,54.9 L 75.1,170.8 L 76.0,87.9 L 76.8,76.8 L 77.7,88.5 L 78.6,42.4 L 79.5,128.3 L 80.4,94.9 L 81.2,52.3 L 82.1,42.4 L 83.0,65.6 L 83.9,42.4 L 84.8,54.0" fill="none" stroke="#c4d0de" stroke-width="2.4" stroke-opacity="1" stroke-linecap="round" stroke-linejoin="round"/>
<line x1="98" y1="116" x2="122" y2="116" stroke="#16233b" stroke-width="2.4" marker-end="url(#af)"/>
<rect x="126" y="60" width="66" height="112" rx="9" fill="#ffffff" fill-opacity="0.55" stroke="#16233b" stroke-opacity="0.12" stroke-width="1.4"/>
<path d="M 135.2,180.4 L 136.1,137.8 L 137.0,170.1 L 137.9,189.6 L 138.8,152.6 L 139.6,127.5 L 140.5,142.6 L 141.4,141.5 L 142.3,155.6 L 143.2,189.6 L 144.0,145.6 L 144.9,154.2 L 145.8,189.6 L 146.7,166.8 L 147.6,169.7 L 148.4,133.3 L 149.3,148.5 L 150.2,143.5 L 151.1,142.3 L 152.0,168.2 L 152.8,177.0 L 153.7,137.6 L 154.6,140.6 L 155.5,132.1 L 156.4,131.1 L 157.2,133.2 L 158.1,110.1 L 159.0,112.5 L 159.9,123.1 L 160.8,142.1 L 161.6,150.6 L 162.5,126.2 L 163.4,99.4 L 164.3,77.0 L 165.2,98.0 L 166.0,75.5 L 166.9,64.4 L 167.8,42.4 L 168.7,76.1 L 169.6,52.6 L 170.4,73.9 L 171.3,99.3 L 172.2,116.8 L 173.1,69.6 L 174.0,58.1 L 174.8,42.4 L 175.7,85.0 L 176.6,63.6 L 177.5,74.2 L 178.4,114.5 L 179.2,64.7 L 180.1,77.0 L 181.0,94.0 L 181.9,42.4 L 182.8,81.8" fill="none" stroke="#8ea3bd" stroke-width="2.4" stroke-opacity="1" stroke-linecap="round" stroke-linejoin="round"/>
<line x1="196" y1="116" x2="220" y2="116" stroke="#16233b" stroke-width="2.4" marker-end="url(#af)"/>
<rect x="224" y="60" width="66" height="112" rx="9" fill="#ffffff" fill-opacity="0.55" stroke="#16233b" stroke-opacity="0.12" stroke-width="1.4"/>
<path d="M 233.2,157.7 L 234.1,163.2 L 235.0,166.5 L 235.9,162.1 L 236.8,154.4 L 237.6,165.6 L 238.5,172.7 L 239.4,145.6 L 240.3,155.7 L 241.2,165.9 L 242.0,158.5 L 242.9,169.1 L 243.8,156.6 L 244.7,148.4 L 245.6,168.8 L 246.4,145.7 L 247.3,144.5 L 248.2,151.0 L 249.1,145.9 L 250.0,146.9 L 250.8,145.0 L 251.7,153.0 L 252.6,122.7 L 253.5,137.0 L 254.4,127.0 L 255.2,125.9 L 256.1,116.6 L 257.0,111.6 L 257.9,119.8 L 258.8,105.0 L 259.6,106.0 L 260.5,107.0 L 261.4,86.6 L 262.3,84.3 L 263.2,97.4 L 264.0,90.0 L 264.9,93.1 L 265.8,91.9 L 266.7,88.8 L 267.6,75.3 L 268.4,89.1 L 269.3,88.2 L 270.2,73.6 L 271.1,80.5 L 272.0,64.7 L 272.8,80.9 L 273.7,76.7 L 274.6,78.5 L 275.5,90.0 L 276.4,69.1 L 277.2,66.1 L 278.1,63.8 L 279.0,72.5 L 279.9,65.7 L 280.8,71.9" fill="none" stroke="#3b82c4" stroke-width="2.4" stroke-opacity="1" stroke-linecap="round" stroke-linejoin="round"/>
<line x1="294" y1="116" x2="316" y2="116" stroke="#16233b" stroke-width="2.4" marker-end="url(#af)"/>
<rect x="320" y="60" width="66" height="112" rx="9" fill="#ffffff" fill-opacity="0.55" stroke="#16233b" stroke-opacity="0.12" stroke-width="1.4"/>
<path d="M 329.2,161.3 L 330.1,161.1 L 331.0,161.0 L 331.9,160.8 L 332.8,160.5 L 333.6,160.3 L 334.5,159.9 L 335.4,159.5 L 336.3,159.0 L 337.2,158.5 L 338.0,157.8 L 338.9,157.1 L 339.8,156.1 L 340.7,155.1 L 341.6,153.8 L 342.4,152.4 L 343.3,150.8 L 344.2,148.9 L 345.1,146.7 L 346.0,144.3 L 346.8,141.6 L 347.7,138.6 L 348.6,135.3 L 349.5,131.8 L 350.4,128.1 L 351.2,124.2 L 352.1,120.1 L 353.0,116.0 L 353.9,111.9 L 354.8,107.8 L 355.6,103.9 L 356.5,100.2 L 357.4,96.7 L 358.3,93.4 L 359.2,90.4 L 360.0,87.7 L 360.9,85.3 L 361.8,83.1 L 362.7,81.2 L 363.6,79.6 L 364.4,78.2 L 365.3,76.9 L 366.2,75.9 L 367.1,74.9 L 368.0,74.2 L 368.8,73.5 L 369.7,73.0 L 370.6,72.5 L 371.5,72.1 L 372.4,71.7 L 373.2,71.5 L 374.1,71.2 L 375.0,71.0 L 375.9,70.9 L 376.8,70.7" fill="none" stroke="#2a5f96" stroke-width="2.4" stroke-opacity="1" stroke-linecap="round" stroke-linejoin="round"/>
<text x="200" y="46" font-family="Georgia,serif" font-size="15" fill="#16233b" text-anchor="middle">reverse diffusion  (t: T &#8594; 0)</text>
<path d="M 68.6,350.8 C 69.1,350.8 70.6,350.7 71.6,350.7 C 72.5,350.6 73.5,350.6 74.5,350.5 C 75.5,350.5 76.5,350.4 77.5,350.4 C 78.4,350.3 79.4,350.3 80.4,350.2 C 81.4,350.1 82.4,350.1 83.4,350.0 C 84.3,349.9 85.3,349.8 86.3,349.8 C 87.3,349.7 88.3,349.6 89.3,349.5 C 90.3,349.4 91.2,349.3 92.2,349.2 C 93.2,349.1 94.2,349.0 95.2,348.9 C 96.2,348.8 97.1,348.7 98.1,348.5 C 99.1,348.4 100.1,348.3 101.1,348.2 C 102.1,348.0 103.0,347.9 104.0,347.7 C 105.0,347.6 106.0,347.4 107.0,347.2 C 108.0,347.1 109.0,346.9 109.9,346.7 C 110.9,346.5 111.9,346.3 112.9,346.1 C 113.9,345.9 114.9,345.7 115.8,345.5 C 116.8,345.3 117.8,345.1 118.8,344.8 C 119.8,344.6 120.8,344.3 121.8,344.0 C 122.7,343.8 123.7,343.5 124.7,343.2 C 125.7,342.9 126.7,342.6 127.7,342.3 C 128.6,342.0 129.6,341.6 130.6,341.3 C 131.6,340.9 132.6,340.6 133.6,340.2 C 134.5,339.8 135.5,339.4 136.5,339.0 C 137.5,338.6 138.5,338.2 139.5,337.7 C 140.5,337.3 141.4,336.8 142.4,336.4 C 143.4,335.9 144.4,335.4 145.4,334.9 C 146.4,334.4 147.3,333.8 148.3,333.3 C 149.3,332.8 150.3,332.2 151.3,331.6 C 152.3,331.0 153.2,330.4 154.2,329.8 C 155.2,329.2 156.2,328.6 157.2,328.0 C 158.2,327.3 159.2,326.7 160.1,326.0 C 161.1,325.3 162.1,324.6 163.1,323.9 C 164.1,323.2 165.1,322.5 166.0,321.8 C 167.0,321.0 168.0,320.3 169.0,319.5 C 170.0,318.8 171.0,318.0 171.9,317.3 C 172.9,316.5 173.9,315.7 174.9,314.9 C 175.9,314.1 176.9,313.3 177.9,312.6 C 178.8,311.8 179.8,311.0 180.8,310.2 C 181.8,309.4 182.8,308.6 183.8,307.8 C 184.7,307.0 185.7,306.2 186.7,305.4 C 187.7,304.6 188.7,303.8 189.7,303.0 C 190.6,302.2 191.6,301.4 192.6,300.6 C 193.6,299.9 194.6,299.1 195.6,298.4 C 196.6,297.6 197.5,296.9 198.5,296.1 C 199.5,295.4 200.5,294.7 201.5,294.0 C 202.5,293.3 203.4,292.6 204.4,291.9 C 205.4,291.2 206.4,290.6 207.4,289.9 C 208.4,289.3 209.4,288.6 210.3,288.0 C 211.3,287.4 212.3,286.8 213.3,286.2 C 214.3,285.6 215.3,285.1 216.2,284.5 C 217.2,284.0 218.2,283.4 219.2,282.9 C 220.2,282.4 221.2,281.9 222.1,281.4 C 223.1,281.0 224.1,280.5 225.1,280.0 C 226.1,279.6 227.1,279.2 228.1,278.8 C 229.0,278.3 230.0,277.9 231.0,277.6 C 232.0,277.2 233.0,276.8 234.0,276.5 C 234.9,276.1 235.9,275.8 236.9,275.5 C 237.9,275.1 238.9,274.8 239.9,274.5 C 240.8,274.2 241.8,273.9 242.8,273.7 C 243.8,273.4 244.8,273.1 245.8,272.9 C 246.8,272.6 247.7,272.4 248.7,272.2 C 249.7,272.0 250.7,271.7 251.7,271.5 C 252.7,271.3 253.6,271.1 254.6,271.0 C 255.6,270.8 256.6,270.6 257.6,270.4 C 258.6,270.2 259.5,270.1 260.5,269.9 C 261.5,269.8 262.5,269.6 263.5,269.5 C 264.5,269.4 265.5,269.2 266.4,269.1 C 267.4,269.0 268.4,268.9 269.4,268.8 C 270.4,268.6 271.4,268.5 272.3,268.4 C 273.3,268.3 274.3,268.2 275.3,268.1 C 276.3,268.0 277.3,268.0 278.2,267.9 C 279.2,267.8 280.2,267.7 281.2,267.6 C 282.2,267.6 283.2,267.5 284.2,267.4 C 285.1,267.4 286.1,267.3 287.1,267.2 C 288.1,267.2 289.1,267.1 290.1,267.1 C 291.0,267.0 292.0,267.0 293.0,266.9 C 294.0,266.9 295.0,266.8 296.0,266.8 C 297.0,266.7 297.9,266.7 298.9,266.7 C 299.9,266.6 300.9,266.6 301.9,266.6 C 302.9,266.5 303.8,266.5 304.8,266.5 C 305.8,266.4 306.8,266.4 307.8,266.4 C 308.8,266.3 309.7,266.3 310.7,266.3 C 311.7,266.3 312.7,266.2 313.7,266.2 C 314.7,266.2 315.7,266.2 316.6,266.1 C 317.6,266.1 318.6,266.1 319.6,266.1 C 320.6,266.1 321.6,266.1 322.5,266.0 C 323.5,266.0 324.5,266.0 325.5,266.0 C 326.5,266.0 327.5,266.0 328.4,266.0 C 329.4,265.9 330.9,265.9 331.4,265.9 " fill="none" stroke="#28b0a0" stroke-width="2.4" stroke-opacity="0.9" stroke-linecap="round" stroke-linejoin="round"/>
<path d="M 68.6,349.2 C 69.1,349.1 70.6,349.1 71.6,349.1 C 72.5,349.0 73.5,349.0 74.5,348.9 C 75.5,348.9 76.5,348.9 77.5,348.8 C 78.4,348.8 79.4,348.7 80.4,348.7 C 81.4,348.6 82.4,348.6 83.4,348.5 C 84.3,348.5 85.3,348.4 86.3,348.4 C 87.3,348.3 88.3,348.3 89.3,348.2 C 90.3,348.1 91.2,348.0 92.2,348.0 C 93.2,347.9 94.2,347.8 95.2,347.7 C 96.2,347.7 97.1,347.6 98.1,347.5 C 99.1,347.4 100.1,347.3 101.1,347.2 C 102.1,347.1 103.0,347.0 104.0,346.9 C 105.0,346.8 106.0,346.7 107.0,346.5 C 108.0,346.4 109.0,346.3 109.9,346.1 C 110.9,346.0 111.9,345.9 112.9,345.7 C 113.9,345.6 114.9,345.4 115.8,345.2 C 116.8,345.1 117.8,344.9 118.8,344.7 C 119.8,344.5 120.8,344.3 121.8,344.1 C 122.7,343.9 123.7,343.7 124.7,343.5 C 125.7,343.3 126.7,343.0 127.7,342.8 C 128.6,342.5 129.6,342.3 130.6,342.0 C 131.6,341.7 132.6,341.5 133.6,341.2 C 134.5,340.9 135.5,340.6 136.5,340.2 C 137.5,339.9 138.5,339.6 139.5,339.2 C 140.5,338.9 141.4,338.5 142.4,338.1 C 143.4,337.8 144.4,337.4 145.4,337.0 C 146.4,336.6 147.3,336.1 148.3,335.7 C 149.3,335.2 150.3,334.8 151.3,334.3 C 152.3,333.8 153.2,333.3 154.2,332.8 C 155.2,332.3 156.2,331.8 157.2,331.2 C 158.2,330.7 159.2,330.1 160.1,329.6 C 161.1,329.0 162.1,328.4 163.1,327.8 C 164.1,327.2 165.1,326.5 166.0,325.9 C 167.0,325.2 168.0,324.6 169.0,323.9 C 170.0,323.2 171.0,322.5 171.9,321.8 C 172.9,321.1 173.9,320.4 174.9,319.7 C 175.9,319.0 176.9,318.2 177.9,317.5 C 178.8,316.7 179.8,316.0 180.8,315.2 C 181.8,314.4 182.8,313.6 183.8,312.8 C 184.7,312.1 185.7,311.3 186.7,310.5 C 187.7,309.7 188.7,308.9 189.7,308.1 C 190.6,307.3 191.6,306.5 192.6,305.7 C 193.6,304.9 194.6,304.1 195.6,303.3 C 196.6,302.5 197.5,301.7 198.5,300.9 C 199.5,300.1 200.5,299.3 201.5,298.6 C 202.5,297.8 203.4,297.0 204.4,296.3 C 205.4,295.5 206.4,294.8 207.4,294.1 C 208.4,293.3 209.4,292.6 210.3,291.9 C 211.3,291.2 212.3,290.5 213.3,289.8 C 214.3,289.1 215.3,288.5 216.2,287.8 C 217.2,287.2 218.2,286.6 219.2,285.9 C 220.2,285.3 221.2,284.7 222.1,284.2 C 223.1,283.6 224.1,283.0 225.1,282.5 C 226.1,281.9 227.1,281.4 228.1,280.9 C 229.0,280.4 230.0,279.9 231.0,279.4 C 232.0,278.9 233.0,278.4 234.0,278.0 C 234.9,277.6 235.9,277.1 236.9,276.7 C 237.9,276.3 238.9,275.9 239.9,275.5 C 240.8,275.1 241.8,274.8 242.8,274.4 C 243.8,274.1 244.8,273.7 245.8,273.4 C 246.8,273.1 247.7,272.8 248.7,272.5 C 249.7,272.2 250.7,271.9 251.7,271.6 C 252.7,271.4 253.6,271.1 254.6,270.9 C 255.6,270.6 256.6,270.4 257.6,270.2 C 258.6,269.9 259.5,269.7 260.5,269.5 C 261.5,269.3 262.5,269.1 263.5,268.9 C 264.5,268.7 265.5,268.6 266.4,268.4 C 267.4,268.2 268.4,268.1 269.4,267.9 C 270.4,267.8 271.4,267.6 272.3,267.5 C 273.3,267.3 274.3,267.2 275.3,267.1 C 276.3,267.0 277.3,266.9 278.2,266.7 C 279.2,266.6 280.2,266.5 281.2,266.4 C 282.2,266.3 283.2,266.2 284.2,266.1 C 285.1,266.0 286.1,266.0 287.1,265.9 C 288.1,265.8 289.1,265.7 290.1,265.6 C 291.0,265.6 292.0,265.5 293.0,265.4 C 294.0,265.4 295.0,265.3 296.0,265.2 C 297.0,265.2 297.9,265.1 298.9,265.1 C 299.9,265.0 300.9,265.0 301.9,264.9 C 302.9,264.9 303.8,264.8 304.8,264.8 C 305.8,264.7 306.8,264.7 307.8,264.7 C 308.8,264.6 309.7,264.6 310.7,264.5 C 311.7,264.5 312.7,264.5 313.7,264.4 C 314.7,264.4 315.7,264.4 316.6,264.4 C 317.6,264.3 318.6,264.3 319.6,264.3 C 320.6,264.3 321.6,264.2 322.5,264.2 C 323.5,264.2 324.5,264.2 325.5,264.1 C 326.5,264.1 327.5,264.1 328.4,264.1 C 329.4,264.1 330.9,264.0 331.4,264.0 " fill="none" stroke="#2e9fb4" stroke-width="2.4" stroke-opacity="0.9" stroke-linecap="round" stroke-linejoin="round"/>
<path d="M 68.6,347.4 C 69.1,347.4 70.6,347.3 71.6,347.3 C 72.5,347.3 73.5,347.3 74.5,347.2 C 75.5,347.2 76.5,347.2 77.5,347.2 C 78.4,347.1 79.4,347.1 80.4,347.1 C 81.4,347.0 82.4,347.0 83.4,346.9 C 84.3,346.9 85.3,346.9 86.3,346.8 C 87.3,346.8 88.3,346.7 89.3,346.7 C 90.3,346.6 91.2,346.6 92.2,346.5 C 93.2,346.5 94.2,346.4 95.2,346.4 C 96.2,346.3 97.1,346.2 98.1,346.2 C 99.1,346.1 100.1,346.0 101.1,346.0 C 102.1,345.9 103.0,345.8 104.0,345.7 C 105.0,345.7 106.0,345.6 107.0,345.5 C 108.0,345.4 109.0,345.3 109.9,345.2 C 110.9,345.1 111.9,345.0 112.9,344.9 C 113.9,344.8 114.9,344.6 115.8,344.5 C 116.8,344.4 117.8,344.3 118.8,344.1 C 119.8,344.0 120.8,343.8 121.8,343.7 C 122.7,343.5 123.7,343.4 124.7,343.2 C 125.7,343.0 126.7,342.9 127.7,342.7 C 128.6,342.5 129.6,342.3 130.6,342.1 C 131.6,341.9 132.6,341.7 133.6,341.5 C 134.5,341.2 135.5,341.0 136.5,340.8 C 137.5,340.5 138.5,340.3 139.5,340.0 C 140.5,339.7 141.4,339.4 142.4,339.1 C 143.4,338.8 144.4,338.5 145.4,338.2 C 146.4,337.9 147.3,337.6 148.3,337.2 C 149.3,336.9 150.3,336.5 151.3,336.1 C 152.3,335.7 153.2,335.3 154.2,334.9 C 155.2,334.5 156.2,334.1 157.2,333.6 C 158.2,333.2 159.2,332.7 160.1,332.3 C 161.1,331.8 162.1,331.3 163.1,330.8 C 164.1,330.3 165.1,329.7 166.0,329.2 C 167.0,328.6 168.0,328.1 169.0,327.5 C 170.0,326.9 171.0,326.3 171.9,325.7 C 172.9,325.1 173.9,324.5 174.9,323.8 C 175.9,323.2 176.9,322.5 177.9,321.8 C 178.8,321.2 179.8,320.5 180.8,319.8 C 181.8,319.1 182.8,318.3 183.8,317.6 C 184.7,316.9 185.7,316.1 186.7,315.4 C 187.7,314.6 188.7,313.9 189.7,313.1 C 190.6,312.3 191.6,311.6 192.6,310.8 C 193.6,310.0 194.6,309.2 195.6,308.4 C 196.6,307.6 197.5,306.8 198.5,306.0 C 199.5,305.2 200.5,304.4 201.5,303.6 C 202.5,302.8 203.4,302.0 204.4,301.2 C 205.4,300.4 206.4,299.6 207.4,298.8 C 208.4,298.0 209.4,297.3 210.3,296.5 C 211.3,295.7 212.3,295.0 213.3,294.2 C 214.3,293.5 215.3,292.7 216.2,292.0 C 217.2,291.3 218.2,290.5 219.2,289.8 C 220.2,289.1 221.2,288.4 222.1,287.8 C 223.1,287.1 224.1,286.4 225.1,285.8 C 226.1,285.1 227.1,284.5 228.1,283.9 C 229.0,283.3 230.0,282.7 231.0,282.1 C 232.0,281.5 233.0,281.0 234.0,280.4 C 234.9,279.9 235.9,279.3 236.9,278.8 C 237.9,278.3 238.9,277.8 239.9,277.3 C 240.8,276.9 241.8,276.4 242.8,276.0 C 243.8,275.5 244.8,275.1 245.8,274.7 C 246.8,274.3 247.7,273.9 248.7,273.5 C 249.7,273.1 250.7,272.7 251.7,272.4 C 252.7,272.0 253.6,271.7 254.6,271.4 C 255.6,271.1 256.6,270.8 257.6,270.5 C 258.6,270.2 259.5,269.9 260.5,269.6 C 261.5,269.3 262.5,269.1 263.5,268.8 C 264.5,268.6 265.5,268.4 266.4,268.1 C 267.4,267.9 268.4,267.7 269.4,267.5 C 270.4,267.3 271.4,267.1 272.3,266.9 C 273.3,266.7 274.3,266.6 275.3,266.4 C 276.3,266.2 277.3,266.1 278.2,265.9 C 279.2,265.8 280.2,265.6 281.2,265.5 C 282.2,265.3 283.2,265.2 284.2,265.1 C 285.1,265.0 286.1,264.8 287.1,264.7 C 288.1,264.6 289.1,264.5 290.1,264.4 C 291.0,264.3 292.0,264.2 293.0,264.1 C 294.0,264.0 295.0,263.9 296.0,263.9 C 297.0,263.8 297.9,263.7 298.9,263.6 C 299.9,263.6 300.9,263.5 301.9,263.4 C 302.9,263.4 303.8,263.3 304.8,263.2 C 305.8,263.2 306.8,263.1 307.8,263.1 C 308.8,263.0 309.7,263.0 310.7,262.9 C 311.7,262.9 312.7,262.8 313.7,262.8 C 314.7,262.7 315.7,262.7 316.6,262.7 C 317.6,262.6 318.6,262.6 319.6,262.5 C 320.6,262.5 321.6,262.5 322.5,262.4 C 323.5,262.4 324.5,262.4 325.5,262.4 C 326.5,262.3 327.5,262.3 328.4,262.3 C 329.4,262.3 330.9,262.2 331.4,262.2 " fill="none" stroke="#3690c2" stroke-width="2.4" stroke-opacity="0.9" stroke-linecap="round" stroke-linejoin="round"/>
<path d="M 68.6,345.6 C 69.1,345.6 70.6,345.5 71.6,345.5 C 72.5,345.5 73.5,345.5 74.5,345.5 C 75.5,345.4 76.5,345.4 77.5,345.4 C 78.4,345.4 79.4,345.3 80.4,345.3 C 81.4,345.3 82.4,345.3 83.4,345.2 C 84.3,345.2 85.3,345.2 86.3,345.2 C 87.3,345.1 88.3,345.1 89.3,345.1 C 90.3,345.0 91.2,345.0 92.2,344.9 C 93.2,344.9 94.2,344.9 95.2,344.8 C 96.2,344.8 97.1,344.7 98.1,344.7 C 99.1,344.6 100.1,344.6 101.1,344.5 C 102.1,344.5 103.0,344.4 104.0,344.4 C 105.0,344.3 106.0,344.2 107.0,344.2 C 108.0,344.1 109.0,344.0 109.9,344.0 C 110.9,343.9 111.9,343.8 112.9,343.7 C 113.9,343.6 114.9,343.6 115.8,343.5 C 116.8,343.4 117.8,343.3 118.8,343.2 C 119.8,343.1 120.8,343.0 121.8,342.9 C 122.7,342.7 123.7,342.6 124.7,342.5 C 125.7,342.4 126.7,342.3 127.7,342.1 C 128.6,342.0 129.6,341.8 130.6,341.7 C 131.6,341.5 132.6,341.4 133.6,341.2 C 134.5,341.0 135.5,340.9 136.5,340.7 C 137.5,340.5 138.5,340.3 139.5,340.1 C 140.5,339.9 141.4,339.7 142.4,339.4 C 143.4,339.2 144.4,339.0 145.4,338.7 C 146.4,338.5 147.3,338.2 148.3,338.0 C 149.3,337.7 150.3,337.4 151.3,337.1 C 152.3,336.8 153.2,336.5 154.2,336.2 C 155.2,335.9 156.2,335.5 157.2,335.2 C 158.2,334.8 159.2,334.5 160.1,334.1 C 161.1,333.7 162.1,333.3 163.1,332.9 C 164.1,332.5 165.1,332.0 166.0,331.6 C 167.0,331.2 168.0,330.7 169.0,330.2 C 170.0,329.7 171.0,329.2 171.9,328.7 C 172.9,328.2 173.9,327.7 174.9,327.1 C 175.9,326.6 176.9,326.0 177.9,325.4 C 178.8,324.9 179.8,324.3 180.8,323.7 C 181.8,323.0 182.8,322.4 183.8,321.8 C 184.7,321.1 185.7,320.5 186.7,319.8 C 187.7,319.1 188.7,318.4 189.7,317.7 C 190.6,317.0 191.6,316.3 192.6,315.5 C 193.6,314.8 194.6,314.1 195.6,313.3 C 196.6,312.6 197.5,311.8 198.5,311.0 C 199.5,310.3 200.5,309.5 201.5,308.7 C 202.5,307.9 203.4,307.1 204.4,306.3 C 205.4,305.5 206.4,304.7 207.4,303.9 C 208.4,303.1 209.4,302.3 210.3,301.5 C 211.3,300.7 212.3,299.9 213.3,299.1 C 214.3,298.3 215.3,297.5 216.2,296.8 C 217.2,296.0 218.2,295.2 219.2,294.4 C 220.2,293.6 221.2,292.9 222.1,292.1 C 223.1,291.4 224.1,290.6 225.1,289.9 C 226.1,289.2 227.1,288.5 228.1,287.8 C 229.0,287.1 230.0,286.4 231.0,285.7 C 232.0,285.0 233.0,284.4 234.0,283.7 C 234.9,283.1 235.9,282.4 236.9,281.8 C 237.9,281.2 238.9,280.6 239.9,280.0 C 240.8,279.5 241.8,278.9 242.8,278.4 C 243.8,277.8 244.8,277.3 245.8,276.8 C 246.8,276.3 247.7,275.8 248.7,275.3 C 249.7,274.8 250.7,274.4 251.7,273.9 C 252.7,273.5 253.6,273.0 254.6,272.6 C 255.6,272.2 256.6,271.8 257.6,271.5 C 258.6,271.1 259.5,270.7 260.5,270.4 C 261.5,270.0 262.5,269.7 263.5,269.4 C 264.5,269.0 265.5,268.7 266.4,268.4 C 267.4,268.1 268.4,267.9 269.4,267.6 C 270.4,267.3 271.4,267.1 272.3,266.8 C 273.3,266.6 274.3,266.3 275.3,266.1 C 276.3,265.9 277.3,265.7 278.2,265.5 C 279.2,265.3 280.2,265.1 281.2,264.9 C 282.2,264.7 283.2,264.5 284.2,264.4 C 285.1,264.2 286.1,264.0 287.1,263.9 C 288.1,263.7 289.1,263.6 290.1,263.5 C 291.0,263.3 292.0,263.2 293.0,263.1 C 294.0,262.9 295.0,262.8 296.0,262.7 C 297.0,262.6 297.9,262.5 298.9,262.4 C 299.9,262.3 300.9,262.2 301.9,262.1 C 302.9,262.0 303.8,261.9 304.8,261.9 C 305.8,261.8 306.8,261.7 307.8,261.6 C 308.8,261.6 309.7,261.5 310.7,261.4 C 311.7,261.3 312.7,261.3 313.7,261.2 C 314.7,261.2 315.7,261.1 316.6,261.1 C 317.6,261.0 318.6,261.0 319.6,260.9 C 320.6,260.9 321.6,260.8 322.5,260.8 C 323.5,260.7 324.5,260.7 325.5,260.7 C 326.5,260.6 327.5,260.6 328.4,260.5 C 329.4,260.5 330.9,260.5 331.4,260.4 " fill="none" stroke="#3b82c4" stroke-width="2.4" stroke-opacity="0.9" stroke-linecap="round" stroke-linejoin="round"/>
<path d="M 68.6,343.7 C 69.1,343.7 70.6,343.7 71.6,343.6 C 72.5,343.6 73.5,343.6 74.5,343.6 C 75.5,343.6 76.5,343.6 77.5,343.6 C 78.4,343.5 79.4,343.5 80.4,343.5 C 81.4,343.5 82.4,343.5 83.4,343.5 C 84.3,343.4 85.3,343.4 86.3,343.4 C 87.3,343.4 88.3,343.3 89.3,343.3 C 90.3,343.3 91.2,343.3 92.2,343.2 C 93.2,343.2 94.2,343.2 95.2,343.1 C 96.2,343.1 97.1,343.1 98.1,343.0 C 99.1,343.0 100.1,343.0 101.1,342.9 C 102.1,342.9 103.0,342.9 104.0,342.8 C 105.0,342.8 106.0,342.7 107.0,342.7 C 108.0,342.6 109.0,342.6 109.9,342.5 C 110.9,342.5 111.9,342.4 112.9,342.4 C 113.9,342.3 114.9,342.2 115.8,342.2 C 116.8,342.1 117.8,342.0 118.8,342.0 C 119.8,341.9 120.8,341.8 121.8,341.7 C 122.7,341.6 123.7,341.6 124.7,341.5 C 125.7,341.4 126.7,341.3 127.7,341.2 C 128.6,341.1 129.6,341.0 130.6,340.8 C 131.6,340.7 132.6,340.6 133.6,340.5 C 134.5,340.4 135.5,340.2 136.5,340.1 C 137.5,340.0 138.5,339.8 139.5,339.7 C 140.5,339.5 141.4,339.4 142.4,339.2 C 143.4,339.0 144.4,338.8 145.4,338.6 C 146.4,338.5 147.3,338.3 148.3,338.1 C 149.3,337.9 150.3,337.6 151.3,337.4 C 152.3,337.2 153.2,337.0 154.2,336.7 C 155.2,336.5 156.2,336.2 157.2,335.9 C 158.2,335.7 159.2,335.4 160.1,335.1 C 161.1,334.8 162.1,334.5 163.1,334.1 C 164.1,333.8 165.1,333.5 166.0,333.1 C 167.0,332.8 168.0,332.4 169.0,332.0 C 170.0,331.7 171.0,331.3 171.9,330.8 C 172.9,330.4 173.9,330.0 174.9,329.6 C 175.9,329.1 176.9,328.6 177.9,328.2 C 178.8,327.7 179.8,327.2 180.8,326.7 C 181.8,326.2 182.8,325.6 183.8,325.1 C 184.7,324.5 185.7,324.0 186.7,323.4 C 187.7,322.8 188.7,322.2 189.7,321.6 C 190.6,321.0 191.6,320.3 192.6,319.7 C 193.6,319.0 194.6,318.4 195.6,317.7 C 196.6,317.0 197.5,316.3 198.5,315.6 C 199.5,314.9 200.5,314.2 201.5,313.5 C 202.5,312.7 203.4,312.0 204.4,311.2 C 205.4,310.5 206.4,309.7 207.4,309.0 C 208.4,308.2 209.4,307.4 210.3,306.6 C 211.3,305.8 212.3,305.0 213.3,304.2 C 214.3,303.4 215.3,302.6 216.2,301.8 C 217.2,301.0 218.2,300.2 219.2,299.4 C 220.2,298.6 221.2,297.8 222.1,297.0 C 223.1,296.3 224.1,295.5 225.1,294.7 C 226.1,293.9 227.1,293.1 228.1,292.3 C 229.0,291.6 230.0,290.8 231.0,290.1 C 232.0,289.3 233.0,288.6 234.0,287.8 C 234.9,287.1 235.9,286.4 236.9,285.7 C 237.9,285.0 238.9,284.3 239.9,283.6 C 240.8,282.9 241.8,282.3 242.8,281.6 C 243.8,281.0 244.8,280.4 245.8,279.8 C 246.8,279.2 247.7,278.6 248.7,278.0 C 249.7,277.4 250.7,276.8 251.7,276.3 C 252.7,275.8 253.6,275.2 254.6,274.7 C 255.6,274.2 256.6,273.7 257.6,273.2 C 258.6,272.8 259.5,272.3 260.5,271.9 C 261.5,271.4 262.5,271.0 263.5,270.6 C 264.5,270.2 265.5,269.8 266.4,269.4 C 267.4,269.0 268.4,268.7 269.4,268.3 C 270.4,268.0 271.4,267.6 272.3,267.3 C 273.3,267.0 274.3,266.7 275.3,266.4 C 276.3,266.1 277.3,265.8 278.2,265.6 C 279.2,265.3 280.2,265.0 281.2,264.8 C 282.2,264.5 283.2,264.3 284.2,264.1 C 285.1,263.9 286.1,263.7 287.1,263.5 C 288.1,263.3 289.1,263.1 290.1,262.9 C 291.0,262.7 292.0,262.5 293.0,262.4 C 294.0,262.2 295.0,262.0 296.0,261.9 C 297.0,261.7 297.9,261.6 298.9,261.4 C 299.9,261.3 300.9,261.2 301.9,261.1 C 302.9,260.9 303.8,260.8 304.8,260.7 C 305.8,260.6 306.8,260.5 307.8,260.4 C 308.8,260.3 309.7,260.2 310.7,260.1 C 311.7,260.0 312.7,259.9 313.7,259.8 C 314.7,259.8 315.7,259.7 316.6,259.6 C 317.6,259.5 318.6,259.5 319.6,259.4 C 320.6,259.3 321.6,259.3 322.5,259.2 C 323.5,259.2 324.5,259.1 325.5,259.1 C 326.5,259.0 327.5,259.0 328.4,258.9 C 329.4,258.9 330.9,258.8 331.4,258.8 " fill="none" stroke="#3172ab" stroke-width="2.4" stroke-opacity="0.9" stroke-linecap="round" stroke-linejoin="round"/>
<path d="M 68.6,341.8 C 69.1,341.8 70.6,341.8 71.6,341.7 C 72.5,341.7 73.5,341.7 74.5,341.7 C 75.5,341.7 76.5,341.7 77.5,341.7 C 78.4,341.7 79.4,341.7 80.4,341.6 C 81.4,341.6 82.4,341.6 83.4,341.6 C 84.3,341.6 85.3,341.6 86.3,341.6 C 87.3,341.5 88.3,341.5 89.3,341.5 C 90.3,341.5 91.2,341.5 92.2,341.4 C 93.2,341.4 94.2,341.4 95.2,341.4 C 96.2,341.4 97.1,341.3 98.1,341.3 C 99.1,341.3 100.1,341.3 101.1,341.2 C 102.1,341.2 103.0,341.2 104.0,341.1 C 105.0,341.1 106.0,341.1 107.0,341.0 C 108.0,341.0 109.0,341.0 109.9,340.9 C 110.9,340.9 111.9,340.9 112.9,340.8 C 113.9,340.8 114.9,340.7 115.8,340.7 C 116.8,340.6 117.8,340.6 118.8,340.5 C 119.8,340.5 120.8,340.4 121.8,340.3 C 122.7,340.3 123.7,340.2 124.7,340.2 C 125.7,340.1 126.7,340.0 127.7,339.9 C 128.6,339.9 129.6,339.8 130.6,339.7 C 131.6,339.6 132.6,339.5 133.6,339.4 C 134.5,339.4 135.5,339.3 136.5,339.2 C 137.5,339.1 138.5,339.0 139.5,338.8 C 140.5,338.7 141.4,338.6 142.4,338.5 C 143.4,338.4 144.4,338.2 145.4,338.1 C 146.4,337.9 147.3,337.8 148.3,337.6 C 149.3,337.5 150.3,337.3 151.3,337.2 C 152.3,337.0 153.2,336.8 154.2,336.6 C 155.2,336.4 156.2,336.2 157.2,336.0 C 158.2,335.8 159.2,335.6 160.1,335.4 C 161.1,335.2 162.1,334.9 163.1,334.7 C 164.1,334.4 165.1,334.2 166.0,333.9 C 167.0,333.6 168.0,333.3 169.0,333.0 C 170.0,332.8 171.0,332.4 171.9,332.1 C 172.9,331.8 173.9,331.5 174.9,331.1 C 175.9,330.7 176.9,330.4 177.9,330.0 C 178.8,329.6 179.8,329.2 180.8,328.8 C 181.8,328.4 182.8,328.0 183.8,327.5 C 184.7,327.1 185.7,326.6 186.7,326.1 C 187.7,325.6 188.7,325.1 189.7,324.6 C 190.6,324.1 191.6,323.6 192.6,323.0 C 193.6,322.5 194.6,321.9 195.6,321.3 C 196.6,320.7 197.5,320.1 198.5,319.5 C 199.5,318.9 200.5,318.3 201.5,317.6 C 202.5,317.0 203.4,316.3 204.4,315.6 C 205.4,315.0 206.4,314.3 207.4,313.6 C 208.4,312.9 209.4,312.1 210.3,311.4 C 211.3,310.7 212.3,309.9 213.3,309.2 C 214.3,308.4 215.3,307.6 216.2,306.9 C 217.2,306.1 218.2,305.3 219.2,304.5 C 220.2,303.7 221.2,303.0 222.1,302.2 C 223.1,301.4 224.1,300.6 225.1,299.8 C 226.1,299.0 227.1,298.2 228.1,297.4 C 229.0,296.6 230.0,295.8 231.0,295.0 C 232.0,294.2 233.0,293.4 234.0,292.6 C 234.9,291.8 235.9,291.0 236.9,290.3 C 237.9,289.5 238.9,288.7 239.9,288.0 C 240.8,287.2 241.8,286.5 242.8,285.8 C 243.8,285.0 244.8,284.3 245.8,283.6 C 246.8,282.9 247.7,282.2 248.7,281.6 C 249.7,280.9 250.7,280.2 251.7,279.6 C 252.7,278.9 253.6,278.3 254.6,277.7 C 255.6,277.1 256.6,276.5 257.6,275.9 C 258.6,275.3 259.5,274.8 260.5,274.2 C 261.5,273.7 262.5,273.2 263.5,272.7 C 264.5,272.2 265.5,271.7 266.4,271.2 C 267.4,270.7 268.4,270.3 269.4,269.8 C 270.4,269.4 271.4,269.0 272.3,268.6 C 273.3,268.1 274.3,267.8 275.3,267.4 C 276.3,267.0 277.3,266.6 278.2,266.3 C 279.2,265.9 280.2,265.6 281.2,265.3 C 282.2,265.0 283.2,264.7 284.2,264.4 C 285.1,264.1 286.1,263.8 287.1,263.5 C 288.1,263.3 289.1,263.0 290.1,262.8 C 291.0,262.5 292.0,262.3 293.0,262.1 C 294.0,261.8 295.0,261.6 296.0,261.4 C 297.0,261.2 297.9,261.0 298.9,260.9 C 299.9,260.7 300.9,260.5 301.9,260.3 C 302.9,260.2 303.8,260.0 304.8,259.9 C 305.8,259.7 306.8,259.6 307.8,259.4 C 308.8,259.3 309.7,259.2 310.7,259.0 C 311.7,258.9 312.7,258.8 313.7,258.7 C 314.7,258.6 315.7,258.5 316.6,258.4 C 317.6,258.3 318.6,258.2 319.6,258.1 C 320.6,258.0 321.6,257.9 322.5,257.8 C 323.5,257.8 324.5,257.7 325.5,257.6 C 326.5,257.5 327.5,257.5 328.4,257.4 C 329.4,257.3 330.9,257.2 331.4,257.2 " fill="none" stroke="#2a5f96" stroke-width="2.4" stroke-opacity="0.9" stroke-linecap="round" stroke-linejoin="round"/>
<text x="200" y="392" font-family="Georgia,serif" font-size="14" fill="#8ea3bd" text-anchor="middle">generated C&#8211;V curves</text>
</g>
<rect x="1" y="1" width="398" height="398" rx="29" fill="none" stroke="#16233b" stroke-opacity="0.10" stroke-width="2"/>
</svg>